<svg width="40" height="40" viewBox="0 0 40 40" fill="none" xmlns="http://www.w3.org/2000/svg">
<rect width="40" height="40" rx="12" fill="#F1F6FB"/>
<path d="M19.9 28.8C24.8153 28.8 28.8 24.8153 28.8 19.9C28.8 14.9847 24.8153 11 19.9 11C14.9847 11 11 14.9847 11 19.9C11 24.8153 14.9847 28.8 19.9 28.8Z" fill="#A3A7BC"/>
<path d="M19.8998 16.6004C20.5073 16.6004 20.9998 16.1079 20.9998 15.5004C20.9998 14.8929 20.5073 14.4004 19.8998 14.4004C19.2923 14.4004 18.7998 14.8929 18.7998 15.5004C18.7998 16.1079 19.2923 16.6004 19.8998 16.6004Z" fill="#F1F6FB"/>
<path d="M19.3999 18.5H19.8999V24.1008H20.6999" stroke="#F1F6FB" stroke-width="1.3" stroke-miterlimit="10" stroke-linecap="round" stroke-linejoin="round"/>
</svg>
