<svg width="40" height="40" viewBox="0 0 40 40" fill="none" xmlns="http://www.w3.org/2000/svg">
<rect width="40" height="40" rx="12" fill="#12CDD9"/>
<path d="M24.4314 18.6246H28.1177V25.1344H24.4314V18.6246Z" fill="white"/>
<path d="M18.157 18.6246H21.8433V25.1344H18.157V18.6246Z" fill="white"/>
<path d="M28.8235 26.3108C28.2314 26.3108 11.8932 26.3108 11.1765 26.3108C10.5278 26.3108 10 26.8386 10 27.4873V28.8599C10 29.5086 10.5278 30.0363 11.1765 30.0363H28.8235C29.4722 30.0363 30 29.5086 30 28.8599V27.4873C30 26.8386 29.4722 26.3108 28.8235 26.3108Z" fill="white"/>
<path d="M29.2628 13.6569C20.201 9.95171 20.4435 10.0508 20.437 10.0482C20.1574 9.9363 19.8465 9.93403 19.5589 10.0498L10.7373 13.6569C10.2893 13.8372 10 14.2653 10 14.7483V16.2717C10 16.9204 10.5278 17.4481 11.1765 17.4481H28.8235C29.4722 17.4481 30 16.9204 30 16.2717V14.7483C30 14.2653 29.7107 13.8372 29.2628 13.6569Z" fill="white"/>
<path d="M11.8823 18.6246H15.5686V25.1344H11.8823V18.6246Z" fill="white"/>
</svg>
