<svg width="40" height="40" viewBox="0 0 40 40" fill="none" xmlns="http://www.w3.org/2000/svg">
<rect width="40" height="40" rx="12" fill="#6998FE"/>
<path fill-rule="evenodd" clip-rule="evenodd" d="M9 14C9 12.8954 9.89543 12 11 12H29C30.1046 12 31 12.8954 31 14V26C31 27.1046 30.1046 28 29 28H11C9.89543 28 9 27.1046 9 26V14Z" fill="white"/>
<path d="M11 15C11 14.4477 11.4477 14 12 14H28C28.5523 14 29 14.4477 29 15V17C29 17.5523 28.5523 18 28 18H12C11.4477 18 11 17.5523 11 17V15Z" fill="#6998FE"/>
<path d="M12 22C12 21.4477 12.4477 21 13 21H15C15.5523 21 16 21.4477 16 22C16 22.5523 15.5523 23 15 23H13C12.4477 23 12 22.5523 12 22Z" fill="#6998FE"/>
<path d="M18 22C18 21.4477 18.4477 21 19 21H27C27.5523 21 28 21.4477 28 22C28 22.5523 27.5523 23 27 23H19C18.4477 23 18 22.5523 18 22Z" fill="#6998FE"/>
</svg>
