<svg width="19" height="22" viewBox="0 0 19 22" fill="none" xmlns="http://www.w3.org/2000/svg">
<g clip-path="url(#clip0_31_357)">
<path d="M11.2353 18.879C11.2353 19.6799 10.6223 20.3324 9.86997 20.3324H2.93189C2.17957 20.3324 1.56656 19.6799 1.56656 18.879V3.12096C1.56656 2.32013 2.17957 1.66759 2.93189 1.66759H9.86997C10.6223 1.66759 11.2353 2.32013 11.2353 3.12096V5.81514H12.8019V3.12096C12.8019 1.40064 11.4876 0 9.86997 0H2.93189C1.31579 0 0 1.40064 0 3.12096V18.879C0 20.5994 1.31579 22 2.93189 22H9.86997C11.4861 22 12.8019 20.5994 12.8019 18.879V16.1849H11.2353V18.879Z" fill="white"/>
<path d="M14.0774 6.59457C13.7709 6.92084 13.7709 7.44814 14.0774 7.77441L16.3251 10.167H7.18422C6.75233 10.167 6.40094 10.5411 6.40094 11.0008C6.40094 11.4606 6.75233 11.8346 7.18422 11.8346H16.3251L14.0774 14.2273C13.7709 14.5535 13.7709 15.0808 14.0774 15.4071C14.3839 15.7334 14.8793 15.7334 15.1858 15.4071L18.7709 11.5907C19.0774 11.2645 19.0774 10.7372 18.7709 10.4109L15.1858 6.59457C14.8793 6.26995 14.3839 6.26995 14.0774 6.59457Z" fill="white"/>
</g>
<defs>
<clipPath id="clip0_31_357">
<rect width="19" height="22" fill="white"/>
</clipPath>
</defs>
</svg>
