<svg width="40" height="40" viewBox="0 0 40 40" fill="none" xmlns="http://www.w3.org/2000/svg">
<rect width="40" height="40" rx="12" fill="#FFBF48"/>
<path d="M12.7661 16.973C12.7661 18.8108 13.1688 19.7342 13.9744 19.7432C14.1161 19.7432 14.3374 19.6081 14.6383 19.3378C15.1429 18.9595 15.5678 18.7568 15.9131 18.7297C16.4796 18.7297 16.7895 19.0045 16.8426 19.5541C16.8692 19.9234 16.701 20.2117 16.338 20.4189C16.1521 20.518 15.9574 20.5676 15.7537 20.5676C14.7446 20.5676 14.0142 20.491 13.5628 20.3378C12.4562 19.9685 11.6949 19.2117 11.2789 18.0676C11.093 17.536 11 16.973 11 16.3784C11 14.6667 11.7879 13.5856 13.3636 13.1351C13.8505 12.991 14.3816 12.9189 14.957 12.9189H25.0222C25.996 12.9189 26.6245 12.7117 26.9078 12.2973C27.0937 12.009 27.1866 11.5766 27.1866 11H27.7443C28.0896 12.1802 28.0852 12.9595 27.7311 13.3378C27.377 13.7072 26.7883 13.9189 25.965 13.973H20.9457V26.1757C20.9457 27.0045 21.0032 27.545 21.1183 27.7973C21.2334 28.0405 21.5034 28.2072 21.9283 28.2973L22.6985 28.4459V29H17.5464V28.4324L18.4626 28.2297C18.7901 28.1577 18.9937 28.0541 19.0734 27.9189C19.1442 27.7658 19.1796 27.4369 19.1796 26.9324V13.973H14.7977C13.7708 13.973 13.129 14.5946 12.8723 15.8378C12.8015 16.1892 12.7661 16.5676 12.7661 16.973Z" fill="white" stroke="white"/>
</svg>
