<svg width="21" height="24" viewBox="0 0 21 24" fill="none" xmlns="http://www.w3.org/2000/svg">
<g clip-path="url(#clip0_31_361)">
<path d="M16.98 18H9.98999V20.01H16.98V18Z" fill="white"/>
<path d="M16.98 14.01H9.98999V16.02H16.98V14.01Z" fill="white"/>
<path d="M16.98 9.99001H9.98999V12H16.98V9.99001Z" fill="white"/>
<path d="M15 0H5.01C3.9 0 3 0.9 3 2.01V4.02H5.01V2.01H13.02V6C13.02 7.11 13.92 8.01 15.03 8.01H19.02V22.02H3C3 23.13 3.9 24.03 5.01 24.03H19.02C20.13 24.03 21.03 23.13 21.03 22.02V6L15 0ZM15 6V2.82L18.18 6H15Z" fill="white"/>
<path d="M5.01 12H3C2.46 12 2.01 11.55 2.01 11.01C2.01 10.47 2.46 10.02 3 10.02H5.01C5.55 10.02 6 10.47 6 11.01H8.01C8.01 9.36 6.66 8.01 5.01 8.01V6H3V8.01C1.35 8.01 0 9.36 0 11.01C0 12.66 1.35 14.01 3 14.01H5.01C5.55 14.01 6 14.46 6 15C6 15.54 5.55 15.99 5.01 15.99H3C2.46 15.99 2.01 15.54 2.01 15H0C0 16.65 1.35 18 3 18V20.01H5.01V18C6.66 18 8.01 16.65 8.01 15C8.01 13.35 6.66 12 5.01 12Z" fill="white"/>
</g>
<defs>
<clipPath id="clip0_31_361">
<rect width="21" height="24" fill="white"/>
</clipPath>
</defs>
</svg>
