<svg width="40" height="40" viewBox="0 0 40 40" fill="none" xmlns="http://www.w3.org/2000/svg">
<rect width="40" height="40" rx="12" fill="#F1F6FB"/>
<path d="M19.9 28.8C24.8153 28.8 28.8 24.8153 28.8 19.9C28.8 14.9847 24.8153 11 19.9 11C14.9847 11 11 14.9847 11 19.9C11 24.8153 14.9847 28.8 19.9 28.8Z" fill="#A3A7BC"/>
<path d="M19.8998 25.2C20.5073 25.2 20.9998 24.7075 20.9998 24.1C20.9998 23.4925 20.5073 23 19.8998 23C19.2923 23 18.7998 23.4925 18.7998 24.1C18.7998 24.7075 19.2923 25.2 19.8998 25.2Z" fill="white"/>
<path d="M17.6997 16.5006C17.9997 15.7006 18.7997 15.1006 19.7997 15.1006C20.9997 15.1006 22.0997 16.1006 22.0997 17.4006C22.0997 19.5006 19.7997 19.8006 19.7997 20.6006V21.2006" stroke="white" stroke-width="1.3" stroke-miterlimit="10" stroke-linecap="round" stroke-linejoin="round"/>
</svg>
