<svg width="24" height="21" viewBox="0 0 24 21" fill="none" xmlns="http://www.w3.org/2000/svg">
<path d="M23.85 11.15C20.55 7.85 20.8 8.1 20.7 8.05C20.55 8 20.6 8 19 8V5.5C19 5.2 18.8 5 18.5 5H17.1C17.05 4.95 17.05 4.85 17 4.8L18 3.8C18.2 3.6 18.2 3.3 18 3.1C15.2 0.3 15.85 0.3 14.2 1.95C14.15 1.9 14.05 1.9 14 1.85V0.5C14 0.2 13.8 0 13.5 0H10.5C10.2 0 9.99997 0.2 9.99997 0.5V1.9C9.94997 1.95 9.84997 1.95 9.79997 2L8.79997 1C8.59997 0.8 8.29997 0.8 8.09997 1L5.99997 3.1C5.79997 3.3 5.79997 3.6 5.99997 3.8L6.94997 4.75C6.89997 4.8 6.89997 4.9 6.84997 4.95H5.49997C5.19997 4.95 4.99997 5.15 4.99997 5.45V7.95C3.39997 7.95 3.44997 7.95 3.29997 8C3.14997 8.05 3.39997 7.8 0.149972 11.1C-0.150028 11.45 0.0499723 12 0.499972 12H2.99997V20.5C2.99997 20.8 3.19997 21 3.49997 21H20.5C20.8 21 21 20.8 21 20.5V12H23.5C23.95 12 24.15 11.45 23.85 11.15ZM5.99997 6H7.24997C7.44997 6 7.64997 5.85 7.74997 5.65C8.14997 4.35 8.54997 4.9 7.09997 3.45L8.49997 2.05L9.34997 2.9C9.49997 3.1 9.74997 3.1 9.89997 3C11.15 2.4 11 3 11 1H13V2.25C13 2.45 13.15 2.65 13.35 2.75C14.65 3.15 14.1 3.55 15.55 2.1L16.95 3.5C16.15 4.3 15.75 4.5 16 4.95C16.65 6.2 16 6.05 18 6.05V8.05H14.3C15.05 6.4 13.8 4.55 12 4.55C10.2 4.55 8.99997 6.4 9.69997 8.05H5.99997V6ZM10.9 8C9.99997 7 10.7 5.5 12 5.5C13.3 5.5 14 7 13.1 8H10.9ZM3.69997 9H7.19997C7.29997 9 7.49997 8.75 5.24997 11H1.69997L3.69997 9ZM3.99997 12C5.64997 12 5.64997 12.05 5.84997 11.85L7.99997 9.7V20H3.99997V12ZM20 20H8.99997V9.7C11.3 12 11.2 12 11.5 12H20V20ZM11.7 11L9.69997 9H20.3L22.3 11H11.7Z" fill="white"/>
<path d="M21 6V3C21 2.35 20 2.35 20 3V6C20 6.65 21 6.65 21 6Z" fill="white"/>
<path d="M4.5 2.5V0.999997C4.5 0.349997 3.5 0.349997 3.5 0.999997V2.5C3.5 3.15 4.5 3.15 4.5 2.5Z" fill="white"/>
</svg>
