<svg xmlns="http://www.w3.org/2000/svg" id="svg6485" width="32" height="32" version="1.1" viewBox="0 0 32 32">
  <g id="layer1" transform="translate(0 -1020.362)">
    <path style="line-height:125%;-inkscape-font-specification:'Comfortaa Bold'" id="path8855" fill="#000" fill-opacity="1" stroke="none" stroke-linecap="butt" stroke-linejoin="miter" stroke-opacity="1" stroke-width="1" d="m 11.5,1022.3622 a 0.50005006,0.50005006 0 0 0 -0.5,0.5 l 0,9.5 -8.5,0 a 0.50005006,0.50005006 0 0 0 -0.5,0.5 l 0,17 a 0.50005006,0.50005006 0 0 0 0.5,0.5 l 9,0 9,0 9,0 a 0.50005006,0.50005006 0 0 0 0.5,-0.5 l 0,-13 a 0.50005006,0.50005006 0 0 0 -0.5,-0.5 l -8.5,0 0,-13.5 a 0.50005006,0.50005006 0 0 0 -0.5,-0.5 l -9,0 z m 0.5,1 8,0 0,26 -8,0 0,-16.5 0,-9.5 z m 4.48438,2 a 0.50005,0.50005 0 0 0 -0.16993,0.035 l -2,0.8008 a 0.50005,0.50005 0 1 0 0.3711,0.9277 L 16,1026.6005 l 0,6.2617 a 0.50005,0.50005 0 1 0 1,0 l 0,-7 a 0.50005,0.50005 0 0 0 -0.51562,-0.5 z m -13.48438,8 8,0 0,16 -8,0 0,-16 z m 4,2 c -0.33001,0 -0.64221,0.063 -0.93555,0.1895 -0.29334,0.1266 -0.54953,0.3014 -0.76953,0.5214 -0.22,0.2201 -0.39539,0.4762 -0.52539,0.7696 -0.12667,0.2933 -0.18945,0.6061 -0.18945,0.9394 0,0.1434 0.0504,0.2678 0.15039,0.3711 0.10333,0.1 0.22581,0.1485 0.36914,0.1485 0.14667,0 0.27109,-0.048 0.37109,-0.1485 0.10334,-0.1033 0.1543,-0.2277 0.1543,-0.3711 0,-0.1933 0.0355,-0.3724 0.10547,-0.539 0.0733,-0.1667 0.17158,-0.3122 0.29492,-0.4356 0.12667,-0.1233 0.27279,-0.221 0.43945,-0.291 0.16668,-0.073 0.34516,-0.1094 0.53516,-0.1094 0.18667,0 0.36262,0.036 0.5293,0.1094 0.16666,0.073 0.31221,0.1741 0.43554,0.3008 0.12667,0.1233 0.22744,0.2689 0.30078,0.4355 0.0733,0.1667 0.10938,0.3427 0.10938,0.5293 0,0.3834 -0.13682,0.7111 -0.41016,0.9844 l -3.24023,3.7012 c -0.0967,0.097 -0.14453,0.2191 -0.14453,0.3691 0,0.07 0.0124,0.1379 0.0391,0.2012 0.0267,0.063 0.0647,0.1199 0.11133,0.1699 0.0467,0.047 0.10073,0.083 0.16406,0.1094 0.0633,0.027 0.13175,0.039 0.20508,0.039 l 3.79492,0 c 0.14667,0 0.2711,-0.048 0.37109,-0.1485 0.10334,-0.1033 0.1543,-0.2277 0.1543,-0.371 0,-0.1434 -0.051,-0.2659 -0.1543,-0.3692 -0.1,-0.1033 -0.22442,-0.1562 -0.37109,-0.1562 l -2.61523,0 2.43164,-2.8184 c 0.23,-0.2333 0.40343,-0.4946 0.52344,-0.7812 0.12333,-0.2867 0.18554,-0.5964 0.18554,-0.9297 0,-0.3267 -0.0653,-0.6364 -0.19531,-0.9297 -0.12667,-0.2934 -0.29953,-0.5495 -0.51953,-0.7696 -0.22,-0.22 -0.47619,-0.3953 -0.76953,-0.5253 -0.29338,-0.13 -0.60558,-0.1953 -0.93559,-0.1953 z m 14,2 8,0 0,12 -8,0 0,-12 z m 4,2 c -1.22574,0 -2.22267,1.0176 -2.22266,2.25 a 0.50005,0.50005 0 1 0 1,0 c -10e-6,-0.7005 0.54607,-1.25 1.22266,-1.25 0.67658,0 1.22267,0.5495 1.22266,1.25 10e-6,0.7006 -0.54608,1.25 -1.22266,1.25 a 0.50005,0.50005 0 1 0 0,1 c 0.49254,0 0.93728,0.2994 1.12891,0.7695 0.19162,0.47 0.0841,1.0099 -0.26758,1.3672 -0.35171,0.3575 -0.86978,0.4617 -1.32617,0.2696 -0.45639,-0.1921 -0.75783,-0.6461 -0.75782,-1.1563 a 0.50005,0.50005 0 1 0 -1,0 c -10e-6,0.9055 0.53842,1.7284 1.36914,2.0781 0.83072,0.3496 1.79438,0.1553 2.42774,-0.4883 0.63337,-0.6436 0.82197,-1.6094 0.48047,-2.4472 -0.14682,-0.3602 -0.39307,-0.6547 -0.6836,-0.8887 0.51478,-0.4139 0.85158,-1.0439 0.85157,-1.7539 10e-6,-1.2324 -0.99693,-2.25 -2.22266,-2.25 z" font-family="Comfortaa" font-size="10.24" font-stretch="normal" font-style="normal" font-variant="normal" font-weight="700" letter-spacing="0" word-spacing="0" />
  </g>
</svg>
