<svg width="19" height="27" viewBox="0 0 19 27" fill="none" xmlns="http://www.w3.org/2000/svg">
<path d="M11.878 2.09063H10.9768C10.9768 1.02156 10.0399 0 8.88071 0C7.72546 0 6.78856 1.02156 6.78856 2.09063H5.88739C4.94653 2.09063 4.12872 2.89045 4.12872 3.82886V5.29784H13.5374V3.82886C13.5374 2.89045 12.8189 2.09063 11.878 2.09063ZM8.87674 2.94193C8.33286 2.94193 7.8922 2.50242 7.8922 1.95996C7.8922 1.41751 8.33286 0.978003 8.87674 0.978003C9.42062 0.978003 9.86128 1.41751 9.86128 1.95996C9.86128 2.50242 9.42062 2.94193 8.87674 2.94193Z" fill="white"/>
<path d="M6.14937 7.43202L4.13662 9.4395L3.20766 8.51297C3.02902 8.33479 2.82258 8.24372 2.65585 8.41002L2.63203 8.43378C2.46529 8.60008 2.3978 8.9604 2.58042 9.13858L3.81109 10.366L3.81506 10.37C3.81903 10.3739 3.81903 10.3739 3.823 10.3779C3.99768 10.5521 4.26366 10.564 4.42246 10.4056L4.51376 10.3146L4.53758 10.2908L6.77265 8.06159C6.93144 7.90321 6.91953 7.63396 6.74486 7.4637C6.57812 7.28552 6.30817 7.27364 6.14937 7.43202Z" fill="white"/>
<path d="M15.2365 9.77211C15.2365 10.0176 15.0063 10.2077 14.7205 10.2077H8.50358C8.21774 10.2077 7.98749 10.0176 7.98749 9.77211C7.98749 9.52662 8.21774 9.33656 8.50358 9.33656H14.7165C15.0023 9.33656 15.2365 9.52662 15.2365 9.77211Z" fill="white"/>
<path d="M6.14937 11.0471L4.13662 13.0546L3.20766 12.128C3.02902 11.9498 2.82258 11.8588 2.65585 12.0251L2.63203 12.0488C2.46529 12.2151 2.3978 12.5754 2.58042 12.7536L3.81109 13.9811L3.81506 13.985C3.81903 13.989 3.81903 13.989 3.823 13.993C3.99768 14.1672 4.26366 14.1791 4.42246 14.0207L4.51376 13.9296L4.53758 13.9058L6.77265 11.6766C6.93144 11.5183 6.91953 11.249 6.74486 11.0787C6.57812 10.9006 6.30817 10.8887 6.14937 11.0471Z" fill="white"/>
<path d="M15.2365 13.3951C15.2365 13.6406 15.0063 13.8504 14.7205 13.8504H8.50358C8.21774 13.8504 7.98749 13.6406 7.98749 13.3951C7.98749 13.1496 8.21774 12.9397 8.50358 12.9397H14.7165C15.0023 12.9397 15.2365 13.1496 15.2365 13.3951Z" fill="white"/>
<path d="M6.14937 14.6621L4.13662 16.6696L3.20766 15.7431C3.02902 15.5649 2.82258 15.4738 2.65585 15.6401L2.63203 15.6639C2.46529 15.8302 2.3978 16.1905 2.58042 16.3687L3.81109 17.5961L3.81506 17.6001C3.81903 17.6041 3.81903 17.6041 3.823 17.608C3.99768 17.7822 4.26366 17.7941 4.42246 17.6357L4.51376 17.5447L4.53758 17.5209L6.77265 15.2917C6.93144 15.1333 6.91953 14.8641 6.74486 14.6938C6.57812 14.5156 6.30817 14.5037 6.14937 14.6621Z" fill="white"/>
<path d="M15.2365 17.018C15.2365 17.2635 15.0063 17.4536 14.7205 17.4536H8.50358C8.21774 17.4536 7.98749 17.2635 7.98749 17.018C7.98749 16.7725 8.21774 16.5825 8.50358 16.5825H14.7165C15.0023 16.5825 15.2365 16.7725 15.2365 17.018Z" fill="white"/>
<path d="M6.14937 18.2772L4.13662 20.2846L3.20766 19.3581C3.02902 19.1799 2.82258 19.0889 2.65585 19.2552L2.63203 19.2789C2.46529 19.4452 2.3978 19.8055 2.58042 19.9837L3.81109 21.2112L3.81506 21.2151C3.81903 21.2191 3.81903 21.2191 3.823 21.223C3.99768 21.3973 4.26366 21.4091 4.42246 21.2508L4.51376 21.1597L4.53758 21.1359L6.77265 18.9067C6.93144 18.7483 6.91953 18.4791 6.74486 18.3088C6.57812 18.1267 6.30817 18.1188 6.14937 18.2772Z" fill="white"/>
<path d="M16.7094 22.0387L14.6966 24.0462L13.7677 23.1197C13.589 22.9415 13.3826 22.8504 13.2158 23.0167L13.192 23.0405C13.0253 23.2068 12.9578 23.5671 13.1404 23.7453L14.3711 24.9727L14.3751 24.9767C14.379 24.9806 14.379 24.9806 14.383 24.9846C14.5577 25.1588 14.8237 25.1707 14.9825 25.0123L15.0738 24.9212L15.0976 24.8975L17.3326 22.6683C17.4914 22.5099 17.4795 22.2406 17.3048 22.0704C17.1381 21.8882 16.8682 21.8803 16.7094 22.0387Z" fill="white"/>
<path d="M14.1329 4.10998H16.491C16.5307 4.10998 16.5546 4.13374 16.5546 4.17333V18.9384C16.9516 19.0572 17.3247 19.2274 17.6661 19.4452V4.17333C17.6661 3.52001 17.1461 3.00131 16.491 3.00131H13.9741C14.0734 3.23888 14.1329 3.53585 14.1329 3.82885V4.10998Z" fill="white"/>
<path d="M10.814 24.3827H1.18303C1.14333 24.3827 1.11158 24.3511 1.11158 24.3115V4.17333C1.11158 4.13374 1.14333 4.10998 1.18303 4.10998H3.53322V3.82885C3.53322 3.53585 3.60865 3.23888 3.71584 3.00131H1.18303C0.527998 3.00131 0 3.52001 0 4.17333V24.3115C0 24.9648 0.527998 25.4914 1.18303 25.4914H11.2507C11.0602 25.1469 10.9133 24.7747 10.814 24.3827Z" fill="white"/>
<path d="M11.874 20.1857H8.50358C8.21774 20.1857 7.98749 20.3757 7.98749 20.6212C7.98749 20.8667 8.21774 21.0567 8.50358 21.0567H11.2468C11.4215 20.74 11.6358 20.447 11.874 20.1857Z" fill="white"/>
<path d="M15.2365 19.5007C13.1642 19.5007 11.477 21.1835 11.477 23.2503C11.477 25.3172 13.1642 27 15.2365 27C17.3088 27 18.996 25.3172 18.996 23.2503C19 21.1835 17.3128 19.5007 15.2365 19.5007ZM15.2365 26.2081C13.6009 26.2081 12.271 24.8816 12.271 23.2503C12.271 21.619 13.6009 20.2926 15.2365 20.2926C16.8721 20.2926 18.202 21.619 18.202 23.2503C18.206 24.8816 16.8721 26.2081 15.2365 26.2081Z" fill="white"/>
</svg>
