<svg width="132" height="68" viewBox="0 0 132 68" fill="none" xmlns="http://www.w3.org/2000/svg">
<path d="M11.372 30.5833C11.1274 30.5833 10.944 30.5833 10.6995 30.5833C8.19274 30.5833 6.114 31.4389 4.34095 33.2111C2.56791 34.9833 1.71196 37.0611 1.71196 39.5667V41.7055H11.372V43.2333H1.71196V56.4944H0.183472V39.5667C0.183472 36.6944 1.22284 34.1889 3.30158 32.1111C5.38032 30.0333 7.8259 29.0555 10.6995 29.0555C10.944 29.0555 11.1274 29.0555 11.372 29.0555V30.5833Z" fill="#FFDF68"/>
<path d="M1.89532 56.7389H0V39.5666C0 36.6333 1.03937 34.0666 3.17925 31.9889C5.25799 29.9111 7.82585 28.8722 10.7605 28.8722C11.0051 28.8722 11.1885 28.8722 11.4331 28.8722H11.6165V30.7666H11.3719C11.1885 30.7666 10.944 30.7666 10.6994 30.7666C8.25382 30.7666 6.17508 31.6222 4.46318 33.3333C2.75127 35.0444 1.89532 37.1222 1.89532 39.5666V41.5222H11.6165V43.4166H1.89532V56.7389ZM0.427976 56.3111H1.52849V43.05H11.1885V41.95H1.52849V39.5666C1.52849 37.0611 2.44558 34.8611 4.21862 33.0277C5.99166 31.2555 8.19268 30.3389 10.7605 30.3389C10.944 30.3389 11.0662 30.3389 11.2497 30.3389V29.2389C11.1274 29.2389 10.944 29.2389 10.7605 29.2389C7.94812 29.2389 5.50255 30.2777 3.48495 32.2333C1.46735 34.25 0.427976 36.6944 0.427976 39.5055V56.3111Z" fill="#FFDF68"/>
<path d="M33.6879 44.8834C32.7708 46.4112 31.4869 47.6945 29.9584 48.6112C28.3077 49.5278 26.5958 50.0167 24.7004 50.0167C21.8269 50.0167 19.3202 48.9778 17.2414 46.9612C15.1627 44.8834 14.1844 42.439 14.1844 39.5056C14.1844 36.5723 15.2238 34.1278 17.2414 32.1112C19.3202 30.0334 21.7657 28.9945 24.7004 28.9945C27.6351 28.9945 30.0807 30.0334 32.0983 32.1112C34.177 34.1889 35.2164 36.6334 35.2164 39.5056V49.2834H33.6879V44.8834ZM33.6879 39.5056C33.6879 37.0001 32.832 34.9223 31.0589 33.1501C29.2859 31.3778 27.2071 30.5223 24.7004 30.5223C22.1937 30.5223 20.115 31.3778 18.3419 33.1501C16.5689 34.9223 15.7129 37.0001 15.7129 39.5056C15.7129 42.0112 16.5689 44.089 18.3419 45.8612C20.115 47.6334 22.1937 48.489 24.7004 48.489C27.2071 48.489 29.2859 47.6334 31.0589 45.8612C32.832 44.1501 33.6879 42.0112 33.6879 39.5056Z" fill="#FFDF68"/>
<path d="M24.7004 50.2611C21.7657 50.2611 19.1978 49.2223 17.1191 47.1445C15.0403 45.0667 14.001 42.5 14.001 39.5667C14.001 36.6334 15.0403 34.0667 17.1191 31.9889C19.1978 29.9112 21.7657 28.8112 24.7004 28.8112C27.6351 28.8112 30.2029 29.85 32.2817 31.9889C34.3604 34.0667 35.3998 36.6334 35.3998 39.5667V49.5278H33.5045V45.6778C32.5874 46.9611 31.4257 48.0612 30.0806 48.8556C28.4299 49.7723 26.5957 50.2611 24.7004 50.2611ZM24.7004 29.2389C21.888 29.2389 19.4424 30.2778 17.4248 32.2945C15.4072 34.3112 14.429 36.7556 14.429 39.5667C14.429 42.3778 15.4683 44.8223 17.4248 46.8389C19.4424 48.8556 21.888 49.8334 24.7004 49.8334C26.5346 49.8334 28.2465 49.3445 29.8361 48.4278C31.3646 47.5111 32.5874 46.2889 33.5045 44.7611L33.8713 44.15V49.0389H34.9718V39.5056C34.9718 36.6945 33.9324 34.25 31.9148 32.2334C29.9584 30.2778 27.5128 29.2389 24.7004 29.2389ZM24.7004 48.7334C22.1937 48.7334 19.9926 47.8167 18.1585 46.0445C16.3854 44.2723 15.4683 42.0723 15.4683 39.5056C15.4683 36.9389 16.3854 34.8 18.1585 32.9667C19.9315 31.1945 22.1325 30.2778 24.7004 30.2778C27.2071 30.2778 29.4081 31.1945 31.2423 32.9667C33.0153 34.7389 33.9324 36.9389 33.9324 39.5056C33.9324 42.0723 33.0153 44.2723 31.1812 46.0445C29.4081 47.8167 27.2071 48.7334 24.7004 48.7334ZM24.7004 30.7056C22.2548 30.7056 20.1761 31.5612 18.4642 33.2723C16.7523 34.9834 15.8963 37.0612 15.8963 39.5056C15.8963 41.95 16.7523 44.0278 18.4642 45.7389C20.1761 47.45 22.2548 48.3056 24.7004 48.3056C27.146 48.3056 29.2247 47.45 30.9366 45.7389C32.6485 44.0278 33.5045 41.95 33.5045 39.5056C33.5045 37.0612 32.6485 34.9834 30.9366 33.2723C29.2247 31.6223 27.0848 30.7056 24.7004 30.7056Z" fill="#FFDF68"/>
<path d="M48.5448 48.55C50.6235 48.55 52.5188 47.8778 54.1085 46.5944C55.6981 45.3111 56.7986 43.6611 57.2266 41.7055H58.7551C58.2659 44.0889 57.0431 46.1055 55.1478 47.6944C53.1914 49.2833 50.9904 50.0778 48.4836 50.0778C45.6101 50.0778 43.1034 49.0389 41.0246 46.9611C38.9459 44.8833 37.9677 42.4389 37.9677 39.5666C37.9677 36.6944 39.007 34.1889 41.0246 32.1722C43.1034 30.0944 45.5489 29.0555 48.4836 29.0555C50.9904 29.0555 53.1914 29.85 55.1478 31.4389C57.0431 33.0278 58.2659 34.9833 58.7551 37.4278H57.2266C56.7375 35.4111 55.6981 33.8222 54.1085 32.5389C52.4577 31.2555 50.6235 30.5833 48.5448 30.5833C46.0381 30.5833 43.9593 31.4389 42.1863 33.2111C40.4132 34.9833 39.5573 37.0611 39.5573 39.5666C39.5573 42.0722 40.4132 44.15 42.1863 45.9222C43.8982 47.6944 46.0381 48.55 48.5448 48.55Z" fill="#FFDF68"/>
<path d="M48.5447 50.2611C45.61 50.2611 43.0422 49.2222 40.9634 47.0833C38.8847 45.0055 37.8453 42.4389 37.8453 39.5055C37.8453 36.5722 38.8847 34.0055 40.9634 31.9278C43.0422 29.85 45.61 28.75 48.5447 28.75C51.1126 28.75 53.3747 29.5444 55.3312 31.1944C57.2877 32.7833 58.5105 34.8611 58.9996 37.3055L59.0607 37.55H57.1043L57.0431 37.3667C56.554 35.4111 55.5146 33.8222 53.9861 32.6C52.3965 31.3167 50.5623 30.7056 48.5447 30.7056C46.0992 30.7056 44.0204 31.5611 42.3085 33.2722C40.5966 34.9833 39.7407 37.0611 39.7407 39.5055C39.7407 41.95 40.5966 44.0278 42.3085 45.7389C44.0204 47.45 46.0992 48.3055 48.5447 48.3055C50.5623 48.3055 52.3965 47.6333 53.9861 46.4111C55.5758 45.1889 56.6151 43.5389 57.0431 41.6444L57.1043 41.4611H59.0607L58.9996 41.7055C58.5105 44.15 57.2265 46.1666 55.3312 47.8166C53.3747 49.4055 51.0515 50.2611 48.5447 50.2611ZM48.5447 29.2389C45.7323 29.2389 43.2867 30.2778 41.2691 32.2944C39.2515 34.3111 38.2733 36.7555 38.2733 39.5667C38.2733 42.3778 39.3127 44.8222 41.2691 46.8389C43.2867 48.8555 45.7323 49.8944 48.5447 49.8944C50.9903 49.8944 53.1913 49.1 55.0867 47.5722C56.8597 46.1055 58.0213 44.2111 58.5716 41.95H57.4711C56.982 43.9055 55.8815 45.5555 54.2918 46.8389C52.6411 48.1833 50.6846 48.8555 48.5447 48.8555C46.038 48.8555 43.837 47.9389 42.0028 46.1666C40.2298 44.3944 39.3127 42.1944 39.3127 39.6278C39.3127 37.0611 40.2298 34.9222 42.0028 33.0889C43.7759 31.3167 45.9769 30.4 48.5447 30.4C50.6846 30.4 52.5799 31.0722 54.2918 32.4167C55.8815 33.7 56.982 35.2889 57.4711 37.3055H58.5716C58.0213 35.0444 56.8597 33.2111 55.0867 31.6833C53.1302 30.0333 50.9903 29.2389 48.5447 29.2389Z" fill="#FFDF68"/>
<path d="M73.4284 48.7944C72.2057 49.5888 70.7994 49.9555 69.271 49.9555C67.1311 49.9555 65.358 49.2221 63.8295 47.6944C62.3011 46.1666 61.5674 44.3944 61.5674 42.2555V26.2444H63.0959V29.7277H73.4284V31.2555H63.0959V42.2555C63.0959 43.9666 63.7073 45.4333 64.9301 46.6555C66.1528 47.8777 67.6202 48.4888 69.3321 48.4888C70.9217 48.4888 72.3279 47.9388 73.4896 46.8999V48.7944H73.4284Z" fill="#FFDF68"/>
<path d="M69.3321 50.2C67.1922 50.2 65.2969 49.4056 63.7684 47.8778C62.2399 46.35 61.4451 44.4556 61.4451 42.2556V26H63.4015V29.4833H73.7341V31.3778H63.4015V42.1944C63.4015 43.8444 64.0129 45.25 65.1746 46.4111C66.3362 47.5722 67.7424 48.1833 69.3932 48.1833C70.9217 48.1833 72.2667 47.6944 73.3673 46.6556L73.7341 46.35V48.7944L73.6118 48.8556C72.3279 49.7722 70.8605 50.2 69.3321 50.2ZM61.8119 26.4278V42.2556C61.8119 44.3333 62.5456 46.1056 64.0129 47.5722C65.4803 49.0389 67.2533 49.7722 69.3321 49.7722C70.7994 49.7722 72.0833 49.4056 73.245 48.6722V47.3278C72.1445 48.2444 70.7994 48.6722 69.3321 48.6722C67.559 48.6722 66.0305 48.0611 64.8077 46.7778C63.5849 45.5555 62.9124 44.0278 62.9124 42.2556V31.0111H73.245V29.9111H62.9124V26.4278H61.8119Z" fill="#FFDF68"/>
<path d="M94.8883 29.7888V41.1555C94.8883 43.661 94.0324 45.7388 92.2593 47.511C90.4863 49.2833 88.3464 50.1388 85.9008 50.1388C83.3941 50.1388 81.3154 49.2833 79.5423 47.511C77.7693 45.7388 76.9133 43.5999 76.9133 41.1555V29.7888H78.4418V41.1555C78.4418 43.2333 79.1755 45.0055 80.6428 46.4722C82.1102 47.9388 83.8832 48.6722 85.962 48.6722C88.0407 48.6722 89.8137 47.9388 91.2811 46.4722C92.7484 45.0055 93.4821 43.2333 93.4821 41.1555V29.7888H94.8883Z" fill="#FFDF68"/>
<path d="M85.9009 50.3222C83.3942 50.3222 81.1931 49.4056 79.359 47.6333C77.5859 45.8611 76.6688 43.6611 76.6688 41.0944V29.5444H78.5641V41.0944C78.5641 43.1111 79.2978 44.8222 80.704 46.2889C82.1102 47.6944 83.8833 48.4278 85.9009 48.4278C87.9185 48.4278 89.6304 47.6944 91.0366 46.2889C92.4428 44.8833 93.1765 43.1111 93.1765 41.0944V29.5444H95.0718V41.0944C95.0718 43.6 94.1547 45.8 92.3817 47.6333C90.6086 49.4056 88.4076 50.3222 85.9009 50.3222ZM77.0968 29.9722V41.0944C77.0968 43.5389 77.9528 45.6167 79.6647 47.3278C81.3766 49.0389 83.4553 49.8944 85.9009 49.8944C88.2853 49.8944 90.4252 49.0389 92.1371 47.3278C93.849 45.6167 94.705 43.5389 94.705 41.0944V29.9722H93.6045V41.0944C93.6045 43.2333 92.8096 45.0667 91.3423 46.5333C89.8138 48.0611 87.9796 48.7944 85.9009 48.7944C83.761 48.7944 81.9268 48.0611 80.4595 46.5333C78.931 45.0056 78.1973 43.1722 78.1973 41.0944V29.9722H77.0968Z" fill="#FFDF68"/>
<path d="M107.3 28.9945C108.095 28.9945 108.828 29.1167 109.623 29.3001V30.8278C108.889 30.5834 108.095 30.4612 107.3 30.4612C105.221 30.4612 103.448 31.1945 101.981 32.6612C100.513 34.1278 99.7796 35.9001 99.7796 37.9778V49.2223H98.2511V37.9778C98.2511 35.4723 99.1071 33.3945 100.88 31.6223C102.714 29.9112 104.854 28.9945 107.3 28.9945Z" fill="#FFDF68"/>
<path d="M100.024 49.4667H98.1288V37.9778C98.1288 35.4723 99.0459 33.2723 100.819 31.5C102.592 29.7278 104.793 28.8112 107.3 28.8112C108.095 28.8112 108.889 28.9334 109.684 29.1167L109.868 29.1778V31.1945L109.623 31.1334C108.889 30.8889 108.156 30.7667 107.361 30.7667C105.343 30.7667 103.631 31.5 102.225 32.9056C100.819 34.3112 100.085 36.0834 100.085 38.0389V49.4667H100.024ZM98.4956 49.0389H99.5961V37.9778C99.5961 35.8389 100.33 34.0056 101.858 32.5389C103.326 31.0111 105.16 30.2778 107.3 30.2778C108.033 30.2778 108.706 30.4 109.378 30.5834V29.4834C108.706 29.3 107.972 29.2389 107.3 29.2389C104.915 29.2389 102.775 30.0945 101.063 31.8056C99.3516 33.5167 98.4956 35.5945 98.4956 38.0389V49.0389Z" fill="#FFDF68"/>
<path d="M113.842 46.9611C111.763 44.8833 110.785 42.4389 110.785 39.5666C110.785 36.6944 111.824 34.1889 113.842 32.1722C115.92 30.0944 118.366 29.0555 121.301 29.0555C124.235 29.0555 126.681 30.0944 128.699 32.1722C130.777 34.25 131.817 36.6944 131.817 39.5666C131.817 42.4389 130.777 44.9444 128.699 46.9611C126.62 49.0389 124.174 50.0778 121.301 50.0778C118.427 50.0778 115.92 48.9778 113.842 46.9611ZM114.942 33.15C113.169 34.9222 112.313 37 112.313 39.5055C112.313 42.0111 113.169 44.0889 114.942 45.8611C116.715 47.6333 118.794 48.4889 121.301 48.4889C123.807 48.4889 125.886 47.6333 127.659 45.8611C129.432 44.0889 130.288 42.0111 130.288 39.5055C130.288 37 129.432 34.9222 127.659 33.15C125.886 31.3778 123.807 30.5222 121.301 30.5222C118.794 30.5222 116.654 31.3778 114.942 33.15Z" fill="#FFDF68"/>
<path d="M121.301 50.2611C118.366 50.2611 115.798 49.2222 113.719 47.0833C111.641 45.0055 110.601 42.4389 110.601 39.5055C110.601 36.5722 111.641 34.0055 113.719 31.9278C115.798 29.85 118.366 28.75 121.301 28.75C124.235 28.75 126.803 29.7889 128.882 31.9278C130.961 34.0055 132 36.5722 132 39.5055C132 42.4389 130.961 45.0055 128.821 47.0833C126.803 49.1611 124.235 50.2611 121.301 50.2611ZM121.301 29.2389C118.488 29.2389 116.043 30.2778 114.025 32.2944C112.007 34.3111 111.029 36.7555 111.029 39.5667C111.029 42.3778 112.069 44.8222 114.025 46.8389C116.043 48.8555 118.488 49.8944 121.301 49.8944C124.113 49.8944 126.559 48.8555 128.576 46.8389C130.594 44.8222 131.633 42.3778 131.633 39.5667C131.633 36.7555 130.594 34.3111 128.576 32.2944C126.559 30.2778 124.113 29.2389 121.301 29.2389ZM121.301 48.7333C118.794 48.7333 116.593 47.8166 114.759 46.0444C112.986 44.2722 112.069 42.0722 112.069 39.5055C112.069 36.9389 112.986 34.8 114.759 32.9667C116.532 31.1944 118.733 30.2778 121.301 30.2778C123.807 30.2778 126.008 31.1944 127.843 32.9667C129.616 34.7389 130.533 36.9389 130.533 39.5055C130.533 42.0722 129.616 44.2111 127.843 46.0444C126.008 47.8166 123.807 48.7333 121.301 48.7333ZM121.301 30.7056C118.855 30.7056 116.776 31.5611 115.064 33.2722C113.352 34.9833 112.497 37.0611 112.497 39.5055C112.497 41.95 113.352 44.0278 115.064 45.7389C116.776 47.45 118.855 48.3055 121.301 48.3055C123.746 48.3055 125.825 47.45 127.537 45.7389C129.249 44.0278 130.105 41.95 130.105 39.5055C130.105 37.0611 129.249 34.9833 127.537 33.2722C125.825 31.6222 123.685 30.7056 121.301 30.7056Z" fill="#FFDF68"/>
<path d="M17.9139 0.977731V21.0222H16.3854V13.5666H1.95646V21.0222H0.427979V0.916626H1.95646V12.0388H16.3242V0.916626H17.9139V0.977731Z" fill="white"/>
<path d="M18.0973 21.2055H16.1409V13.7499H2.13993V21.2055H0.183472V0.733276H2.13993V11.8555H16.1409V0.733276H18.0973V21.2055ZM16.5688 20.8388H17.7305V1.16105H16.5688V12.2833H1.7731V1.16105H0.611448V20.8388H1.7731V13.3833H16.5688V20.8388Z" fill="white"/>
<path d="M23.9666 18.6389C21.8267 16.5 20.7874 13.9945 20.7874 11C20.7874 8.00558 21.8267 5.50002 23.9666 3.36113C26.1065 1.22225 28.6132 0.18335 31.609 0.18335C34.6049 0.18335 37.1116 1.22225 39.2515 3.36113C41.3913 5.50002 42.4307 8.00558 42.4307 11C42.4307 13.9945 41.3913 16.5 39.2515 18.6389C37.1116 20.7778 34.6049 21.8167 31.609 21.8167C28.6132 21.8167 26.0453 20.7778 23.9666 18.6389ZM25.0671 4.46113C23.2329 6.29446 22.377 8.43336 22.377 11C22.377 13.5667 23.2941 15.7667 25.0671 17.5389C26.9013 19.3722 29.0412 20.2278 31.609 20.2278C34.1769 20.2278 36.3779 19.3111 38.151 17.5389C39.9851 15.7056 40.8411 13.5667 40.8411 11C40.8411 8.43336 39.924 6.23335 38.151 4.46113C36.3168 2.62779 34.1769 1.77224 31.609 1.77224C29.0412 1.77224 26.8402 2.62779 25.0671 4.46113Z" fill="white"/>
<path d="M31.6091 22C28.6133 22 25.9843 20.9 23.7832 18.7611C21.6434 16.6222 20.5428 13.9944 20.5428 11C20.5428 8.00556 21.6434 5.37777 23.7832 3.23888C25.9231 1.09999 28.5521 0 31.6091 0C34.6049 0 37.2339 1.09999 39.3738 3.23888C41.5137 5.37777 42.6142 8.00556 42.6142 11C42.6142 13.9944 41.5137 16.6222 39.3738 18.7611C37.2339 20.9611 34.6049 22 31.6091 22ZM31.6091 0.366661C28.6744 0.366661 26.1677 1.40555 24.0889 3.48333C22.0102 5.56111 20.9708 8.06667 20.9708 11C20.9708 13.9333 22.0102 16.4389 24.0889 18.5167C26.1677 20.5944 28.6744 21.6333 31.6091 21.6333C34.5438 21.6333 37.0505 20.5944 39.1292 18.5167C41.208 16.4389 42.2473 13.9333 42.2473 11C42.2473 8.06667 41.208 5.56111 39.1292 3.48333C37.0505 1.46667 34.4826 0.366661 31.6091 0.366661ZM31.6091 20.4722C28.9801 20.4722 26.7791 19.5556 24.8837 17.7222C23.0496 15.8889 22.1325 13.6278 22.1325 11C22.1325 8.37222 23.0496 6.17222 24.8837 4.27778C26.7179 2.38333 28.9801 1.52778 31.6091 1.52778C34.2381 1.52778 36.4391 2.44445 38.3344 4.27778C40.1686 6.11111 41.0857 8.37222 41.0857 11C41.0857 13.6278 40.1686 15.8278 38.3344 17.7222C36.4391 19.5556 34.1769 20.4722 31.6091 20.4722ZM31.6091 1.95555C29.1024 1.95555 26.9625 2.87222 25.1894 4.58333C23.4164 6.35556 22.5604 8.49445 22.5604 11C22.5604 13.5056 23.4775 15.6445 25.1894 17.4167C26.9625 19.1889 29.1024 20.0444 31.6091 20.0444C34.1158 20.0444 36.2557 19.1278 38.0287 17.4167C39.8018 15.6445 40.6577 13.5056 40.6577 11C40.6577 8.49445 39.7406 6.35556 38.0287 4.58333C36.2557 2.81111 34.1158 1.95555 31.6091 1.95555Z" fill="white"/>
<path d="M52.2743 13.5667L59.7944 0.977783H61.5675L53.0691 15.4611V21.0833H51.4795V15.4611L42.9811 0.977783H44.7541L52.2743 13.5667Z" fill="white"/>
<path d="M53.2525 21.2666H51.2349V15.5222L42.6143 0.733276H44.8153L44.8764 0.855497L52.2132 13.1999L59.611 0.794382H61.812L53.2525 15.5222V21.2666ZM51.6629 20.8388H52.8245V15.3999L61.1395 1.16105H59.9167L52.2743 13.9944L44.6319 1.16105H43.3479L51.6629 15.3999V20.8388Z" fill="white"/>
<path d="M81.2543 66.6723C81.132 66.7946 80.9486 66.8557 80.7652 66.8557C80.5818 66.8557 80.3984 66.7946 80.2761 66.6723C80.1538 66.5501 80.0927 66.3668 80.0927 66.1834C80.0927 66.0001 80.1538 65.8168 80.2761 65.6946C80.3984 65.5723 80.5818 65.5112 80.7652 65.5112C80.9486 65.5112 81.132 65.5723 81.2543 65.6946C81.3766 65.8168 81.4377 66.0001 81.4377 66.1834C81.4377 66.3668 81.3766 66.489 81.2543 66.6723Z" fill="white"/>
<path d="M80.7652 67.039C80.5207 67.039 80.2761 66.9779 80.0927 66.7945C79.9093 66.6112 79.8481 66.3668 79.8481 66.1223C79.8481 65.8779 79.9093 65.6334 80.0927 65.5112C80.4595 65.1445 81.0098 65.1445 81.3766 65.5112C81.56 65.6945 81.6212 65.8779 81.6212 66.1223C81.6212 66.3668 81.56 66.6112 81.3766 66.7945C81.1932 66.9779 81.0098 67.039 80.7652 67.039ZM80.7652 65.6334C80.643 65.6334 80.5207 65.6945 80.3984 65.7556C80.2761 65.8779 80.2761 65.939 80.2761 66.1223C80.2761 66.2445 80.3373 66.3667 80.3984 66.489C80.5818 66.6723 80.8875 66.6723 81.0709 66.489C81.1932 66.3667 81.1932 66.2445 81.1932 66.1223C81.1932 66.0001 81.1321 65.8779 81.0709 65.7556C81.0098 65.6945 80.8875 65.6334 80.7652 65.6334Z" fill="white"/>
<path d="M88.8968 66.3056C90.2419 66.3056 91.4036 65.8778 92.5041 65.0223C93.5434 64.2278 94.216 63.1278 94.5217 61.8445H95.4999C95.1942 63.3723 94.3994 64.6556 93.1766 65.6945C91.9538 66.7334 90.4865 67.2223 88.8968 67.2223C87.0627 67.2223 85.473 66.5501 84.128 65.2667C82.7829 63.9223 82.1715 62.3334 82.1715 60.5001C82.1715 58.6667 82.844 57.0778 84.128 55.7334C85.473 54.3889 87.0627 53.7778 88.8968 53.7778C90.4865 53.7778 91.9538 54.2667 93.1766 55.3056C94.3994 56.3445 95.1942 57.5667 95.4999 59.1556H94.5217C94.216 57.8723 93.5434 56.8334 92.5041 55.9778C91.4647 55.1223 90.2419 54.6945 88.8968 54.6945C87.3072 54.6945 85.9621 55.2445 84.8005 56.4056C83.6389 57.5667 83.0886 58.9112 83.0886 60.5001C83.0886 62.089 83.6389 63.4334 84.8005 64.5945C85.9621 65.7556 87.3072 66.3056 88.8968 66.3056Z" fill="white"/>
<path d="M88.8968 67.4668C87.0015 67.4668 85.3507 66.7945 84.0056 65.4501C82.6606 64.1056 81.988 62.4556 81.988 60.5612C81.988 58.6668 82.6606 57.0168 84.0056 55.6723C85.3507 54.3279 87.0015 53.6556 88.8968 53.6556C90.5475 53.6556 92.0149 54.2056 93.2988 55.2445C94.5828 56.2834 95.3776 57.6279 95.6833 59.2168L95.7444 59.4612H94.3382L94.2771 59.2779C93.9714 58.0556 93.2988 57.0168 92.3206 56.2223C91.2812 55.4279 90.1196 55.0001 88.8357 55.0001C87.3072 55.0001 85.9621 55.5501 84.8616 56.6501C83.7611 57.7501 83.2108 59.0334 83.2108 60.6223C83.2108 62.2112 83.7611 63.4945 84.8616 64.5945C85.9621 65.6945 87.246 66.2445 88.8357 66.2445C90.1196 66.2445 91.2812 65.8168 92.3206 65.0223C93.2988 64.2279 93.9714 63.189 94.2771 61.9668L94.3382 61.7834H95.7444L95.6833 62.0279C95.3776 63.6168 94.5216 64.9612 93.2988 66.0001C92.0149 66.9168 90.5475 67.4668 88.8968 67.4668ZM88.8968 53.9612C87.1237 53.9612 85.5341 54.6334 84.2502 55.8556C82.9663 57.139 82.3549 58.6668 82.3549 60.5001C82.3549 62.2723 83.0274 63.8612 84.2502 65.1445C85.5341 66.4279 87.0626 67.039 88.8968 67.039C90.4253 67.039 91.8315 66.5501 93.0543 65.5723C94.1548 64.6556 94.8885 63.4945 95.2553 62.089H94.705C94.3382 63.3112 93.6657 64.4112 92.6263 65.2056C91.5258 66.0612 90.303 66.489 88.8968 66.489C87.246 66.489 85.8398 65.8779 84.6782 64.7168C83.5165 63.5556 82.9051 62.1501 82.9051 60.5001C82.9051 58.8501 83.5165 57.4445 84.6782 56.2834C85.8398 55.1223 87.246 54.5112 88.8968 54.5112C90.303 54.5112 91.5258 54.939 92.6263 55.7945C93.6657 56.589 94.3382 57.6279 94.705 58.9112H95.2553C94.8885 57.5056 94.1548 56.3445 93.0543 55.4279C91.8315 54.5112 90.4253 53.9612 88.8968 53.9612Z" fill="white"/>
<path d="M98.8626 65.2667C97.5175 63.9223 96.9061 62.3334 96.9061 60.5001C96.9061 58.6667 97.5787 57.0778 98.8626 55.7334C100.208 54.3889 101.797 53.7778 103.631 53.7778C105.466 53.7778 107.055 54.4501 108.4 55.7334C109.745 57.0778 110.357 58.6667 110.357 60.5001C110.357 62.3334 109.684 63.9223 108.4 65.2667C107.055 66.6112 105.466 67.2223 103.631 67.2223C101.797 67.2834 100.208 66.6112 98.8626 65.2667ZM99.5963 56.4056C98.4957 57.5056 97.8844 58.9112 97.8844 60.5001C97.8844 62.0889 98.4346 63.4334 99.5963 64.5945C100.697 65.6945 102.103 66.3056 103.693 66.3056C105.282 66.3056 106.627 65.7556 107.789 64.5945C108.889 63.4945 109.501 62.0889 109.501 60.5001C109.501 58.9112 108.951 57.5667 107.789 56.4056C106.688 55.3056 105.282 54.6945 103.693 54.6945C102.042 54.7556 100.697 55.3056 99.5963 56.4056Z" fill="white"/>
<path d="M103.631 67.4668C101.736 67.4668 100.085 66.7945 98.7403 65.4501C97.3952 64.1056 96.7227 62.4556 96.7227 60.5612C96.7227 58.6668 97.3952 57.0168 98.7403 55.6723C100.085 54.3279 101.736 53.6556 103.631 53.6556C105.527 53.6556 107.178 54.3279 108.523 55.6723C109.868 57.0168 110.54 58.6668 110.54 60.5612C110.54 62.4556 109.868 64.1056 108.523 65.4501C107.239 66.7945 105.588 67.4668 103.631 67.4668ZM103.631 53.9612C101.858 53.9612 100.269 54.6334 98.9848 55.8556C97.7009 57.139 97.0895 58.6668 97.0895 60.5001C97.0895 62.2723 97.762 63.8612 98.9848 65.1445C100.269 66.4279 101.797 67.039 103.631 67.039C105.404 67.039 106.994 66.3667 108.278 65.1445C109.562 63.8612 110.173 62.3334 110.173 60.5001C110.173 58.7279 109.501 57.139 108.278 55.8556C106.994 54.6334 105.466 53.9612 103.631 53.9612ZM103.631 66.489C101.981 66.489 100.574 65.8779 99.4128 64.7168C98.2511 63.5556 97.6397 62.1501 97.6397 60.5001C97.6397 58.8501 98.2511 57.4445 99.4128 56.2834C100.574 55.1223 101.981 54.5112 103.631 54.5112C105.282 54.5112 106.688 55.1223 107.85 56.2834C109.012 57.4445 109.623 58.8501 109.623 60.5001C109.623 62.1501 109.012 63.5556 107.85 64.7168C106.688 65.8779 105.282 66.489 103.631 66.489ZM103.631 54.939C102.103 54.939 100.758 55.489 99.6574 56.589C98.5568 57.689 98.0066 58.9723 98.0066 60.5612C98.0066 62.1501 98.5568 63.4334 99.6574 64.5334C100.758 65.6334 102.042 66.1834 103.631 66.1834C105.221 66.1834 106.505 65.6334 107.605 64.5334C108.706 63.4334 109.256 62.1501 109.256 60.5612C109.256 58.9723 108.706 57.689 107.605 56.589C106.505 55.489 105.16 54.939 103.631 54.939Z" fill="white"/>
<path d="M112.191 66.7945V58.7889C112.191 57.3834 112.68 56.2223 113.658 55.2445C114.636 54.2667 115.798 53.7778 117.204 53.7778C118.183 53.7778 119.1 54.0223 119.956 54.5723C120.75 55.1223 121.362 55.7945 121.79 56.6501C122.218 55.7945 122.829 55.0612 123.624 54.5723C124.419 54.0223 125.336 53.7778 126.314 53.7778C127.72 53.7778 128.882 54.2667 129.86 55.2445C130.838 56.2223 131.328 57.3834 131.328 58.7889V66.7945H130.349V58.7889C130.349 57.6889 129.982 56.7112 129.188 55.9167C128.393 55.1223 127.415 54.7556 126.314 54.7556C125.214 54.7556 124.235 55.1223 123.441 55.9167C122.646 56.7112 122.279 57.6889 122.279 58.7889V66.7945H121.301V58.7889C121.301 57.6889 120.934 56.7112 120.139 55.9167C119.344 55.1223 118.366 54.7556 117.265 54.7556C116.165 54.7556 115.187 55.1223 114.392 55.9167C113.597 56.7112 113.23 57.6889 113.23 58.7889V66.7945H112.191Z" fill="white"/>
<path d="M131.511 66.9778H130.105V58.7889C130.105 57.75 129.738 56.8334 129.004 56.0389C128.271 55.3056 127.353 54.9389 126.253 54.9389C125.214 54.9389 124.296 55.3056 123.563 56.0389C122.829 56.7723 122.462 57.6889 122.462 58.7889V66.9778H121.056V58.7889C121.056 57.75 120.689 56.8334 119.956 56.0389C119.222 55.3056 118.305 54.9389 117.204 54.9389C116.165 54.9389 115.248 55.3056 114.514 56.0389C113.78 56.7723 113.414 57.6889 113.414 58.7889V66.9778H112.007V58.7889C112.007 57.3223 112.497 56.1 113.536 55.1223C114.575 54.0834 115.798 53.5945 117.204 53.5945C118.244 53.5945 119.161 53.9 120.017 54.45C120.75 54.9389 121.301 55.55 121.729 56.2834C122.157 55.55 122.707 54.9389 123.441 54.45C124.296 53.9 125.275 53.5945 126.253 53.5945C127.72 53.5945 128.943 54.0834 129.921 55.1223C130.961 56.1611 131.45 57.3834 131.45 58.7889V66.9778H131.511ZM130.533 66.55H131.083V58.7889C131.083 57.4445 130.594 56.3445 129.677 55.3667C128.76 54.45 127.598 53.9611 126.253 53.9611C125.336 53.9611 124.419 54.2056 123.624 54.7556C122.829 55.2445 122.279 55.9167 121.851 56.7723L121.667 57.1389L121.484 56.7723C121.117 55.9167 120.506 55.2445 119.711 54.7556C118.916 54.2667 118.06 53.9611 117.082 53.9611C115.737 53.9611 114.636 54.45 113.719 55.3667C112.802 56.2834 112.313 57.4445 112.313 58.7889V66.55H112.863V58.7889C112.863 57.6278 113.291 56.5889 114.086 55.7945C114.942 54.9389 115.92 54.5723 117.082 54.5723C118.244 54.5723 119.283 55 120.078 55.7945C120.934 56.65 121.301 57.6278 121.301 58.7889V66.55H121.851V58.7889C121.851 57.6278 122.279 56.5889 123.074 55.7945C123.93 54.9389 124.908 54.5723 126.07 54.5723C127.231 54.5723 128.271 55 129.065 55.7945C129.921 56.65 130.288 57.6278 130.288 58.7889V66.55H130.533Z" fill="white"/>
</svg>
