<svg width="216" height="243" viewBox="0 0 216 243" fill="none" xmlns="http://www.w3.org/2000/svg">
<g clip-path="url(#clip0_26_63)">
<path d="M18.6 180.7C18.2 180.7 17.9 180.7 17.5 180.7C13.4 180.7 9.99999 182.1 7.09999 185C4.19999 187.9 2.79999 191.3 2.79999 195.4V198.9H18.6V201.4H2.79999V223.1H0.299988V195.4C0.299988 190.7 1.99999 186.6 5.39999 183.2C8.79999 179.8 12.8 178.2 17.5 178.2C17.9 178.2 18.2 178.2 18.6 178.2V180.7Z" fill="#FFDF68"/>
<path d="M3.1 223.5H0V195.4C0 190.6 1.7 186.4 5.2 183C8.6 179.6 12.8 177.9 17.6 177.9C18 177.9 18.3 177.9 18.7 177.9H19V181H18.6C18.3 181 17.9 181 17.5 181C13.5 181 10.1 182.4 7.3 185.2C4.5 188 3.1 191.4 3.1 195.4V198.6H19V201.7H3.1V223.5ZM0.7 222.8H2.5V201.1H18.3V199.3H2.5V195.4C2.5 191.3 4 187.7 6.9 184.7C9.8 181.8 13.4 180.3 17.6 180.3C17.9 180.3 18.1 180.3 18.4 180.3V178.5C18.2 178.5 17.9 178.5 17.6 178.5C13 178.5 9 180.2 5.7 183.4C2.4 186.7 0.7 190.7 0.7 195.3V222.8Z" fill="#FFDF68"/>
<path d="M55.1 204.1C53.6 206.6 51.5 208.7 49 210.2C46.3 211.7 43.5 212.5 40.4 212.5C35.7 212.5 31.6 210.8 28.2 207.5C24.8 204.1 23.2 200.1 23.2 195.3C23.2 190.5 24.9 186.5 28.2 183.2C31.6 179.8 35.6 178.1 40.4 178.1C45.2 178.1 49.2 179.8 52.5 183.2C55.9 186.6 57.6 190.6 57.6 195.3V211.3H55.1V204.1ZM55.1 195.3C55.1 191.2 53.7 187.8 50.8 184.9C47.9 182 44.5 180.6 40.4 180.6C36.3 180.6 32.9 182 30 184.9C27.1 187.8 25.7 191.2 25.7 195.3C25.7 199.4 27.1 202.8 30 205.7C32.9 208.6 36.3 210 40.4 210C44.5 210 47.9 208.6 50.8 205.7C53.7 202.9 55.1 199.4 55.1 195.3Z" fill="#FFDF68"/>
<path d="M40.4 212.9C35.6 212.9 31.4 211.2 28 207.8C24.6 204.4 22.9 200.2 22.9 195.4C22.9 190.6 24.6 186.4 28 183C31.4 179.6 35.6 177.8 40.4 177.8C45.2 177.8 49.4 179.5 52.8 183C56.2 186.4 57.9 190.6 57.9 195.4V211.7H54.8V205.4C53.3 207.5 51.4 209.3 49.2 210.6C46.5 212.1 43.5 212.9 40.4 212.9ZM40.4 178.5C35.8 178.5 31.8 180.2 28.5 183.5C25.2 186.8 23.6 190.8 23.6 195.4C23.6 200 25.3 204 28.5 207.3C31.8 210.6 35.8 212.2 40.4 212.2C43.4 212.2 46.2 211.4 48.8 209.9C51.3 208.4 53.3 206.4 54.8 203.9L55.4 202.9V210.9H57.2V195.3C57.2 190.7 55.5 186.7 52.2 183.4C49 180.2 45 178.5 40.4 178.5ZM40.4 210.4C36.3 210.4 32.7 208.9 29.7 206C26.8 203.1 25.3 199.5 25.3 195.3C25.3 191.1 26.8 187.6 29.7 184.6C32.6 181.7 36.2 180.2 40.4 180.2C44.5 180.2 48.1 181.7 51.1 184.6C54 187.5 55.5 191.1 55.5 195.3C55.5 199.5 54 203.1 51 206C48.1 208.9 44.5 210.4 40.4 210.4ZM40.4 180.9C36.4 180.9 33 182.3 30.2 185.1C27.4 187.9 26 191.3 26 195.3C26 199.3 27.4 202.7 30.2 205.5C33 208.3 36.4 209.7 40.4 209.7C44.4 209.7 47.8 208.3 50.6 205.5C53.4 202.7 54.8 199.3 54.8 195.3C54.8 191.3 53.4 187.9 50.6 185.1C47.8 182.4 44.3 180.9 40.4 180.9Z" fill="#FFDF68"/>
<path d="M79.4 210.1C82.8 210.1 85.9 209 88.5 206.9C91.1 204.8 92.9 202.1 93.6 198.9H96.1C95.3 202.8 93.3 206.1 90.2 208.7C87 211.3 83.4 212.6 79.3 212.6C74.6 212.6 70.5 210.9 67.1 207.5C63.7 204.1 62.1 200.1 62.1 195.4C62.1 190.7 63.8 186.6 67.1 183.3C70.5 179.9 74.5 178.2 79.3 178.2C83.4 178.2 87 179.5 90.2 182.1C93.3 184.7 95.3 187.9 96.1 191.9H93.6C92.8 188.6 91.1 186 88.5 183.9C85.8 181.8 82.8 180.7 79.4 180.7C75.3 180.7 71.9 182.1 69 185C66.1 187.9 64.7 191.3 64.7 195.4C64.7 199.5 66.1 202.9 69 205.8C71.8 208.7 75.3 210.1 79.4 210.1Z" fill="#FFDF68"/>
<path d="M79.4 212.9C74.6 212.9 70.4 211.2 67 207.7C63.6 204.3 61.9 200.1 61.9 195.3C61.9 190.5 63.6 186.3 67 182.9C70.4 179.5 74.6 177.7 79.4 177.7C83.6 177.7 87.3 179 90.5 181.7C93.7 184.3 95.7 187.7 96.5 191.7L96.6 192.1H93.4L93.3 191.8C92.5 188.6 90.8 186 88.3 184C85.7 181.9 82.7 180.9 79.4 180.9C75.4 180.9 72 182.3 69.2 185.1C66.4 187.9 65 191.3 65 195.3C65 199.3 66.4 202.7 69.2 205.5C72 208.3 75.4 209.7 79.4 209.7C82.7 209.7 85.7 208.6 88.3 206.6C90.9 204.6 92.6 201.9 93.3 198.8L93.4 198.5H96.6L96.5 198.9C95.7 202.9 93.6 206.2 90.5 208.9C87.3 211.5 83.5 212.9 79.4 212.9ZM79.4 178.5C74.8 178.5 70.8 180.2 67.5 183.5C64.2 186.8 62.6 190.8 62.6 195.4C62.6 200 64.3 204 67.5 207.3C70.8 210.6 74.8 212.3 79.4 212.3C83.4 212.3 87 211 90.1 208.5C93 206.1 94.9 203 95.8 199.3H94C93.2 202.5 91.4 205.2 88.8 207.3C86.1 209.5 82.9 210.6 79.4 210.6C75.3 210.6 71.7 209.1 68.7 206.2C65.8 203.3 64.3 199.7 64.3 195.5C64.3 191.3 65.8 187.8 68.7 184.8C71.6 181.9 75.2 180.4 79.4 180.4C82.9 180.4 86 181.5 88.8 183.7C91.4 185.8 93.2 188.4 94 191.7H95.8C94.9 188 93 185 90.1 182.5C86.9 179.8 83.4 178.5 79.4 178.5Z" fill="#FFDF68"/>
<path d="M120.1 210.5C118.1 211.8 115.8 212.4 113.3 212.4C109.8 212.4 106.9 211.2 104.4 208.7C101.9 206.2 100.7 203.3 100.7 199.8V173.6H103.2V179.3H120.1V181.8H103.2V199.8C103.2 202.6 104.2 205 106.2 207C108.2 209 110.6 210 113.4 210C116 210 118.3 209.1 120.2 207.4V210.5H120.1Z" fill="#FFDF68"/>
<path d="M113.4 212.8C109.9 212.8 106.8 211.5 104.3 209C101.8 206.5 100.5 203.4 100.5 199.8V173.2H103.7V178.9H120.6V182H103.7V199.7C103.7 202.4 104.7 204.7 106.6 206.6C108.5 208.5 110.8 209.5 113.5 209.5C116 209.5 118.2 208.7 120 207L120.6 206.5V210.5L120.4 210.6C118.3 212.1 115.9 212.8 113.4 212.8ZM101.1 173.9V199.8C101.1 203.2 102.3 206.1 104.7 208.5C107.1 210.9 110 212.1 113.4 212.1C115.8 212.1 117.9 211.5 119.8 210.3V208.1C118 209.6 115.8 210.3 113.4 210.3C110.5 210.3 108 209.3 106 207.2C104 205.2 102.9 202.7 102.9 199.8V181.4H119.8V179.6H102.9V173.9H101.1Z" fill="#FFDF68"/>
<path d="M155.2 179.4V198C155.2 202.1 153.8 205.5 150.9 208.4C148 211.3 144.5 212.7 140.5 212.7C136.4 212.7 133 211.3 130.1 208.4C127.2 205.5 125.8 202 125.8 198V179.4H128.3V198C128.3 201.4 129.5 204.3 131.9 206.7C134.3 209.1 137.2 210.3 140.6 210.3C144 210.3 146.9 209.1 149.3 206.7C151.7 204.3 152.9 201.4 152.9 198V179.4H155.2Z" fill="#FFDF68"/>
<path d="M140.5 213C136.4 213 132.8 211.5 129.8 208.6C126.9 205.7 125.4 202.1 125.4 197.9V179H128.5V197.9C128.5 201.2 129.7 204 132 206.4C134.3 208.7 137.2 209.9 140.5 209.9C143.8 209.9 146.6 208.7 148.9 206.4C151.2 204.1 152.4 201.2 152.4 197.9V179H155.5V197.9C155.5 202 154 205.6 151.1 208.6C148.2 211.5 144.6 213 140.5 213ZM126.1 179.7V197.9C126.1 201.9 127.5 205.3 130.3 208.1C133.1 210.9 136.5 212.3 140.5 212.3C144.4 212.3 147.9 210.9 150.7 208.1C153.5 205.3 154.9 201.9 154.9 197.9V179.7H153.1V197.9C153.1 201.4 151.8 204.4 149.4 206.8C146.9 209.3 143.9 210.5 140.5 210.5C137 210.5 134 209.3 131.6 206.8C129.1 204.3 127.9 201.3 127.9 197.9V179.7H126.1Z" fill="#FFDF68"/>
<path d="M175.5 178.1C176.8 178.1 178 178.3 179.3 178.6V181.1C178.1 180.7 176.8 180.5 175.5 180.5C172.1 180.5 169.2 181.7 166.8 184.1C164.4 186.5 163.2 189.4 163.2 192.8V211.2H160.7V192.8C160.7 188.7 162.1 185.3 165 182.4C168 179.6 171.5 178.1 175.5 178.1Z" fill="#FFDF68"/>
<path d="M163.6 211.6H160.5V192.8C160.5 188.7 162 185.1 164.9 182.2C167.8 179.3 171.4 177.8 175.5 177.8C176.8 177.8 178.1 178 179.4 178.3L179.7 178.4V181.7L179.3 181.6C178.1 181.2 176.9 181 175.6 181C172.3 181 169.5 182.2 167.2 184.5C164.9 186.8 163.7 189.7 163.7 192.9V211.6H163.6ZM161.1 210.9H162.9V192.8C162.9 189.3 164.1 186.3 166.6 183.9C169 181.4 172 180.2 175.5 180.2C176.7 180.2 177.8 180.4 178.9 180.7V178.9C177.8 178.6 176.6 178.5 175.5 178.5C171.6 178.5 168.1 179.9 165.3 182.7C162.5 185.5 161.1 188.9 161.1 192.9V210.9Z" fill="#FFDF68"/>
<path d="M186.2 207.5C182.8 204.1 181.2 200.1 181.2 195.4C181.2 190.7 182.9 186.6 186.2 183.3C189.6 179.9 193.6 178.2 198.4 178.2C203.2 178.2 207.2 179.9 210.5 183.3C213.9 186.7 215.6 190.7 215.6 195.4C215.6 200.1 213.9 204.2 210.5 207.5C207.1 210.9 203.1 212.6 198.4 212.6C193.7 212.6 189.6 210.8 186.2 207.5ZM188 184.9C185.1 187.8 183.7 191.2 183.7 195.3C183.7 199.4 185.1 202.8 188 205.7C190.9 208.6 194.3 210 198.4 210C202.5 210 205.9 208.6 208.8 205.7C211.7 202.8 213.1 199.4 213.1 195.3C213.1 191.2 211.7 187.8 208.8 184.9C205.9 182 202.5 180.6 198.4 180.6C194.3 180.6 190.8 182 188 184.9Z" fill="#FFDF68"/>
<path d="M198.4 212.9C193.6 212.9 189.4 211.2 186 207.7C182.6 204.3 180.9 200.1 180.9 195.3C180.9 190.5 182.6 186.3 186 182.9C189.4 179.5 193.6 177.7 198.4 177.7C203.2 177.7 207.4 179.4 210.8 182.9C214.2 186.3 215.9 190.5 215.9 195.3C215.9 200.1 214.2 204.3 210.7 207.7C207.4 211.1 203.2 212.9 198.4 212.9ZM198.4 178.5C193.8 178.5 189.8 180.2 186.5 183.5C183.2 186.8 181.6 190.8 181.6 195.4C181.6 200 183.3 204 186.5 207.3C189.8 210.6 193.8 212.3 198.4 212.3C203 212.3 207 210.6 210.3 207.3C213.6 204 215.3 200 215.3 195.4C215.3 190.8 213.6 186.8 210.3 183.5C207 180.2 203 178.5 198.4 178.5ZM198.4 210.4C194.3 210.4 190.7 208.9 187.7 206C184.8 203.1 183.3 199.5 183.3 195.3C183.3 191.1 184.8 187.6 187.7 184.6C190.6 181.7 194.2 180.2 198.4 180.2C202.5 180.2 206.1 181.7 209.1 184.6C212 187.5 213.5 191.1 213.5 195.3C213.5 199.5 212 203 209.1 206C206.1 208.9 202.5 210.4 198.4 210.4ZM198.4 180.9C194.4 180.9 191 182.3 188.2 185.1C185.4 187.9 184 191.3 184 195.3C184 199.3 185.4 202.7 188.2 205.5C191 208.3 194.4 209.7 198.4 209.7C202.4 209.7 205.8 208.3 208.6 205.5C211.4 202.7 212.8 199.3 212.8 195.3C212.8 191.3 211.4 187.9 208.6 185.1C205.8 182.4 202.3 180.9 198.4 180.9Z" fill="#FFDF68"/>
<path d="M29.3 134.2V167H26.8V154.8H3.20001V167H0.700012V134.1H3.20001V152.3H26.7V134.1H29.3V134.2Z" fill="white"/>
<path d="M29.6 167.3H26.4V155.1H3.49999V167.3H0.299988V133.8H3.49999V152H26.4V133.8H29.6V167.3ZM27.1 166.7H29V134.5H27.1V152.7H2.89999V134.5H0.999988V166.7H2.89999V154.5H27.1V166.7Z" fill="white"/>
<path d="M39.2 163.1C35.7 159.6 34 155.5 34 150.6C34 145.7 35.7 141.6 39.2 138.1C42.7 134.6 46.8 132.9 51.7 132.9C56.6 132.9 60.7 134.6 64.2 138.1C67.7 141.6 69.4 145.7 69.4 150.6C69.4 155.5 67.7 159.6 64.2 163.1C60.7 166.6 56.6 168.3 51.7 168.3C46.8 168.3 42.6 166.6 39.2 163.1ZM41 139.9C38 142.9 36.6 146.4 36.6 150.6C36.6 154.8 38.1 158.4 41 161.3C44 164.3 47.5 165.7 51.7 165.7C55.9 165.7 59.5 164.2 62.4 161.3C65.4 158.3 66.8 154.8 66.8 150.6C66.8 146.4 65.3 142.8 62.4 139.9C59.4 136.9 55.9 135.5 51.7 135.5C47.5 135.5 43.9 136.9 41 139.9Z" fill="white"/>
<path d="M51.7 168.6C46.8 168.6 42.5 166.8 38.9 163.3C35.4 159.8 33.6 155.5 33.6 150.6C33.6 145.7 35.4 141.4 38.9 137.9C42.4 134.4 46.7 132.6 51.7 132.6C56.6 132.6 60.9 134.4 64.4 137.9C67.9 141.4 69.7 145.7 69.7 150.6C69.7 155.5 67.9 159.8 64.4 163.3C60.9 166.9 56.6 168.6 51.7 168.6ZM51.7 133.2C46.9 133.2 42.8 134.9 39.4 138.3C36 141.7 34.3 145.8 34.3 150.6C34.3 155.4 36 159.5 39.4 162.9C42.8 166.3 46.9 168 51.7 168C56.5 168 60.6 166.3 64 162.9C67.4 159.5 69.1 155.4 69.1 150.6C69.1 145.8 67.4 141.7 64 138.3C60.6 135 56.4 133.2 51.7 133.2ZM51.7 166.1C47.4 166.1 43.8 164.6 40.7 161.6C37.7 158.6 36.2 154.9 36.2 150.6C36.2 146.3 37.7 142.7 40.7 139.6C43.7 136.5 47.4 135.1 51.7 135.1C56 135.1 59.6 136.6 62.7 139.6C65.7 142.6 67.2 146.3 67.2 150.6C67.2 154.9 65.7 158.5 62.7 161.6C59.6 164.6 55.9 166.1 51.7 166.1ZM51.7 135.8C47.6 135.8 44.1 137.3 41.2 140.1C38.3 143 36.9 146.5 36.9 150.6C36.9 154.7 38.4 158.2 41.2 161.1C44.1 164 47.6 165.4 51.7 165.4C55.8 165.4 59.3 163.9 62.2 161.1C65.1 158.2 66.5 154.7 66.5 150.6C66.5 146.5 65 143 62.2 140.1C59.3 137.2 55.8 135.8 51.7 135.8Z" fill="white"/>
<path d="M85.4999 154.8L97.7999 134.2H100.7L86.7999 157.9V167.1H84.1999V157.9L70.2999 134.2H73.1999L85.4999 154.8Z" fill="white"/>
<path d="M87.1 167.4H83.8V158L69.7 133.8H73.3L73.4 134L85.4 154.2L97.5 133.9H101.1L87.1 158V167.4ZM84.5 166.7H86.4V157.8L100 134.5H98L85.5 155.5L73 134.5H70.9L84.5 157.8V166.7Z" fill="white"/>
<path d="M132.9 241.7C132.7 241.9 132.4 242 132.1 242C131.8 242 131.5 241.9 131.3 241.7C131.1 241.5 131 241.2 131 240.9C131 240.6 131.1 240.3 131.3 240.1C131.5 239.9 131.8 239.8 132.1 239.8C132.4 239.8 132.7 239.9 132.9 240.1C133.1 240.3 133.2 240.6 133.2 240.9C133.2 241.2 133.1 241.4 132.9 241.7Z" fill="white"/>
<path d="M132.1 242.3C131.7 242.3 131.3 242.2 131 241.9C130.7 241.6 130.6 241.2 130.6 240.8C130.6 240.4 130.7 240 131 239.8C131.6 239.2 132.5 239.2 133.1 239.8C133.4 240.1 133.5 240.4 133.5 240.8C133.5 241.2 133.4 241.6 133.1 241.9C132.8 242.2 132.5 242.3 132.1 242.3ZM132.1 240C131.9 240 131.7 240.1 131.5 240.2C131.3 240.4 131.3 240.5 131.3 240.8C131.3 241 131.4 241.2 131.5 241.4C131.8 241.7 132.3 241.7 132.6 241.4C132.8 241.2 132.8 241 132.8 240.8C132.8 240.6 132.7 240.4 132.6 240.2C132.5 240.1 132.3 240 132.1 240Z" fill="white"/>
<path d="M145.4 241.1C147.6 241.1 149.5 240.4 151.3 239C153 237.7 154.1 235.9 154.6 233.8H156.2C155.7 236.3 154.4 238.4 152.4 240.1C150.4 241.8 148 242.6 145.4 242.6C142.4 242.6 139.8 241.5 137.6 239.4C135.4 237.2 134.4 234.6 134.4 231.6C134.4 228.6 135.5 226 137.6 223.8C139.8 221.6 142.4 220.6 145.4 220.6C148 220.6 150.4 221.4 152.4 223.1C154.4 224.8 155.7 226.8 156.2 229.4H154.6C154.1 227.3 153 225.6 151.3 224.2C149.6 222.8 147.6 222.1 145.4 222.1C142.8 222.1 140.6 223 138.7 224.9C136.8 226.8 135.9 229 135.9 231.6C135.9 234.2 136.8 236.4 138.7 238.3C140.6 240.2 142.8 241.1 145.4 241.1Z" fill="white"/>
<path d="M145.4 243C142.3 243 139.6 241.9 137.4 239.7C135.2 237.5 134.1 234.8 134.1 231.7C134.1 228.6 135.2 225.9 137.4 223.7C139.6 221.5 142.3 220.4 145.4 220.4C148.1 220.4 150.5 221.3 152.6 223C154.7 224.7 156 226.9 156.5 229.5L156.6 229.9H154.3L154.2 229.6C153.7 227.6 152.6 225.9 151 224.6C149.3 223.3 147.4 222.6 145.3 222.6C142.8 222.6 140.6 223.5 138.8 225.3C137 227.1 136.1 229.2 136.1 231.8C136.1 234.4 137 236.5 138.8 238.3C140.6 240.1 142.7 241 145.3 241C147.4 241 149.3 240.3 151 239C152.6 237.7 153.7 236 154.2 234L154.3 233.7H156.6L156.5 234.1C156 236.7 154.6 238.9 152.6 240.6C150.5 242.1 148.1 243 145.4 243ZM145.4 220.9C142.5 220.9 139.9 222 137.8 224C135.7 226.1 134.7 228.6 134.7 231.6C134.7 234.5 135.8 237.1 137.8 239.2C139.9 241.3 142.4 242.3 145.4 242.3C147.9 242.3 150.2 241.5 152.2 239.9C154 238.4 155.2 236.5 155.8 234.2H154.9C154.3 236.2 153.2 238 151.5 239.3C149.7 240.7 147.7 241.4 145.4 241.4C142.7 241.4 140.4 240.4 138.5 238.5C136.6 236.6 135.6 234.3 135.6 231.6C135.6 228.9 136.6 226.6 138.5 224.7C140.4 222.8 142.7 221.8 145.4 221.8C147.7 221.8 149.7 222.5 151.5 223.9C153.2 225.2 154.3 226.9 154.9 229H155.8C155.2 226.7 154 224.8 152.2 223.3C150.2 221.8 147.9 220.9 145.4 220.9Z" fill="white"/>
<path d="M161.7 239.4C159.5 237.2 158.5 234.6 158.5 231.6C158.5 228.6 159.6 226 161.7 223.8C163.9 221.6 166.5 220.6 169.5 220.6C172.5 220.6 175.1 221.7 177.3 223.8C179.5 226 180.5 228.6 180.5 231.6C180.5 234.6 179.4 237.2 177.3 239.4C175.1 241.6 172.5 242.6 169.5 242.6C166.5 242.7 163.9 241.6 161.7 239.4ZM162.9 224.9C161.1 226.7 160.1 229 160.1 231.6C160.1 234.2 161 236.4 162.9 238.3C164.7 240.1 167 241.1 169.6 241.1C172.2 241.1 174.4 240.2 176.3 238.3C178.1 236.5 179.1 234.2 179.1 231.6C179.1 229 178.2 226.8 176.3 224.9C174.5 223.1 172.2 222.1 169.6 222.1C166.9 222.2 164.7 223.1 162.9 224.9Z" fill="white"/>
<path d="M169.5 243C166.4 243 163.7 241.9 161.5 239.7C159.3 237.5 158.2 234.8 158.2 231.7C158.2 228.6 159.3 225.9 161.5 223.7C163.7 221.5 166.4 220.4 169.5 220.4C172.6 220.4 175.3 221.5 177.5 223.7C179.7 225.9 180.8 228.6 180.8 231.7C180.8 234.8 179.7 237.5 177.5 239.7C175.4 241.9 172.7 243 169.5 243ZM169.5 220.9C166.6 220.9 164 222 161.9 224C159.8 226.1 158.8 228.6 158.8 231.6C158.8 234.5 159.9 237.1 161.9 239.2C164 241.3 166.5 242.3 169.5 242.3C172.4 242.3 175 241.2 177.1 239.2C179.2 237.1 180.2 234.6 180.2 231.6C180.2 228.7 179.1 226.1 177.1 224C175 222 172.5 220.9 169.5 220.9ZM169.5 241.4C166.8 241.4 164.5 240.4 162.6 238.5C160.7 236.6 159.7 234.3 159.7 231.6C159.7 228.9 160.7 226.6 162.6 224.7C164.5 222.8 166.8 221.8 169.5 221.8C172.2 221.8 174.5 222.8 176.4 224.7C178.3 226.6 179.3 228.9 179.3 231.6C179.3 234.3 178.3 236.6 176.4 238.5C174.5 240.4 172.2 241.4 169.5 241.4ZM169.5 222.5C167 222.5 164.8 223.4 163 225.2C161.2 227 160.3 229.1 160.3 231.7C160.3 234.3 161.2 236.4 163 238.2C164.8 240 166.9 240.9 169.5 240.9C172.1 240.9 174.2 240 176 238.2C177.8 236.4 178.7 234.3 178.7 231.7C178.7 229.1 177.8 227 176 225.2C174.2 223.4 172 222.5 169.5 222.5Z" fill="white"/>
<path d="M183.5 241.9V228.8C183.5 226.5 184.3 224.6 185.9 223C187.5 221.4 189.4 220.6 191.7 220.6C193.3 220.6 194.8 221 196.2 221.9C197.5 222.8 198.5 223.9 199.2 225.3C199.9 223.9 200.9 222.7 202.2 221.9C203.5 221 205 220.6 206.6 220.6C208.9 220.6 210.8 221.4 212.4 223C214 224.6 214.8 226.5 214.8 228.8V241.9H213.2V228.8C213.2 227 212.6 225.4 211.3 224.1C210 222.8 208.4 222.2 206.6 222.2C204.8 222.2 203.2 222.8 201.9 224.1C200.6 225.4 200 227 200 228.8V241.9H198.4V228.8C198.4 227 197.8 225.4 196.5 224.1C195.2 222.8 193.6 222.2 191.8 222.2C190 222.2 188.4 222.8 187.1 224.1C185.8 225.4 185.2 227 185.2 228.8V241.9H183.5Z" fill="white"/>
<path d="M215.1 242.2H212.8V228.8C212.8 227.1 212.2 225.6 211 224.3C209.8 223.1 208.3 222.5 206.5 222.5C204.8 222.5 203.3 223.1 202.1 224.3C200.9 225.5 200.3 227 200.3 228.8V242.2H198V228.8C198 227.1 197.4 225.6 196.2 224.3C195 223.1 193.5 222.5 191.7 222.5C190 222.5 188.5 223.1 187.3 224.3C186.1 225.5 185.5 227 185.5 228.8V242.2H183.2V228.8C183.2 226.4 184 224.4 185.7 222.8C187.4 221.1 189.4 220.3 191.7 220.3C193.4 220.3 194.9 220.8 196.3 221.7C197.5 222.5 198.4 223.5 199.1 224.7C199.8 223.5 200.7 222.5 201.9 221.7C203.3 220.8 204.9 220.3 206.5 220.3C208.9 220.3 210.9 221.1 212.5 222.8C214.2 224.5 215 226.5 215 228.8V242.2H215.1ZM213.5 241.5H214.4V228.8C214.4 226.6 213.6 224.8 212.1 223.2C210.6 221.7 208.7 220.9 206.5 220.9C205 220.9 203.5 221.3 202.2 222.2C200.9 223 200 224.1 199.3 225.5L199 226.1L198.7 225.5C198.1 224.1 197.1 223 195.8 222.2C194.5 221.4 193.1 220.9 191.5 220.9C189.3 220.9 187.5 221.7 186 223.2C184.5 224.7 183.7 226.6 183.7 228.8V241.5H184.6V228.8C184.6 226.9 185.3 225.2 186.6 223.9C188 222.5 189.6 221.9 191.5 221.9C193.4 221.9 195.1 222.6 196.4 223.9C197.8 225.3 198.4 226.9 198.4 228.8V241.5H199.3V228.8C199.3 226.9 200 225.2 201.3 223.9C202.7 222.5 204.3 221.9 206.2 221.9C208.1 221.9 209.8 222.6 211.1 223.9C212.5 225.3 213.1 226.9 213.1 228.8V241.5H213.5Z" fill="white"/>
<path d="M107.1 121.8C140.734 121.8 168 94.5341 168 60.9C168 27.2659 140.734 0 107.1 0C73.4659 0 46.2 27.2659 46.2 60.9C46.2 94.5341 73.4659 121.8 107.1 121.8Z" fill="white"/>
<path d="M84 29.3C84 32.1 84 91.1 84 94.2H94.3C94.3 91.1 94.3 32.1 94.3 29.3H84Z" fill="white"/>
<path d="M94.3 29.3C94.3 32.1 94.3 91.1 94.3 94.2H117.1V97.5C117.1 101.2 120.1 104.1 123.7 104.1C125.8 104.1 127.6 103.2 128.8 101.7C129.7 100.6 130.3 99.1 130.3 97.5C130.3 95 130.3 32.7 130.3 29.3H94.3Z" fill="#FFDF68"/>
<path d="M124.1 104.7H80C76.3 104.7 73.2 101.3 73.2 97.2V93.5H83.4H117.3V97.2C117.3 101.4 120.3 104.7 124.1 104.7Z" fill="#00B3B9"/>
<path d="M120.3 37.6C119.4 37.6 118.6 38.3 118.6 39.3C118.6 40.2 119.3 41 120.3 41C121.2 41 122 40.3 122 39.3C122 38.3 121.3 37.6 120.3 37.6Z" fill="#020203"/>
<path d="M141.2 21H73C68.4 21 64.7 24.7 64.7 29.3C64.7 33.9 68.4 37.6 73 37.6H82.3V92.5H74C73.1 92.5 72.3 93.2 72.3 94.2V97.5C72.3 102.1 76 105.8 80.6 105.8H123.6C128.2 105.8 131.9 102.1 131.9 97.5C131.9 96.6 131.9 40.3 131.9 37.6H141.2C145.8 37.6 149.5 33.9 149.5 29.3C149.5 24.7 145.8 21 141.2 21ZM80.6 102.4C77.9 102.4 75.6 100.2 75.6 97.4V95.7H115.3V97.4C115.3 99.3 115.9 101 117 102.4H80.6ZM128.6 97.4C128.6 100.1 126.4 102.4 123.6 102.4C120.8 102.4 118.6 100.2 118.6 97.4V94.1C118.6 93.2 117.9 92.4 116.9 92.4H85.6V30.9H128.6C128.6 34.1 128.6 94.5 128.6 97.4ZM141.2 34.3H131.9V31H137.9C138.8 31 139.6 30.3 139.6 29.3C139.6 28.3 138.9 27.6 137.9 27.6H76.3C75.4 27.6 74.6 28.3 74.6 29.3C74.6 30.3 75.3 31 76.3 31H82.3V34.3H73C70.3 34.3 68 32.1 68 29.3C68 26.5 70.2 24.3 73 24.3H141.2C143.9 24.3 146.2 26.5 146.2 29.3C146.2 32.1 143.9 34.3 141.2 34.3Z" fill="#020203"/>
<path d="M93.9 40.9H113.8C114.7 40.9 115.5 40.2 115.5 39.2C115.5 38.3 114.8 37.5 113.8 37.5H93.9C93 37.5 92.2 38.2 92.2 39.2C92.2 40.1 93 40.9 93.9 40.9Z" fill="#020203"/>
<path d="M120.3 47.5H93.9C93 47.5 92.2 48.2 92.2 49.2C92.2 50.1 92.9 50.9 93.9 50.9H120.4C121.3 50.9 122.1 50.2 122.1 49.2C122 48.2 121.3 47.5 120.3 47.5Z" fill="#020203"/>
<path d="M100.516 68.0911C99.7852 66.3961 98.4701 65.2855 96.3659 65.1102C96.2198 65.081 96.1614 64.9933 96.249 64.9056L100.72 60.0251C100.867 59.8789 100.925 59.6744 100.925 59.4698V57.7747C100.925 57.5117 100.75 57.3364 100.487 57.3364H89.4396C89.1766 57.3364 89.0013 57.5117 89.0013 57.7747V59.3529C89.0013 59.6159 89.1766 59.7913 89.4396 59.7913H97.1842C97.3011 59.7913 97.3303 59.8497 97.2427 59.9666L92.3329 65.1979C92.1575 65.4024 92.1283 65.5778 92.3037 65.8116L93.2389 66.9514C93.4142 67.1559 93.6188 67.1852 93.8526 67.0683C94.2033 66.8929 94.4955 66.8052 94.8755 66.8052C96.2783 66.8052 97.2719 67.4482 97.7687 68.6756C98.0902 69.377 98.2655 70.2538 98.2655 71.3351C98.2655 72.1534 98.1194 72.9425 97.8564 73.6146C97.3888 74.9005 96.3659 75.5727 94.9047 75.5727C93.2973 75.5727 92.1868 74.6375 91.8068 73.2347C91.6899 72.8548 91.6315 72.2995 91.573 71.8319C91.573 71.5397 91.3977 71.3935 91.1347 71.3935H89.1766C88.9136 71.3935 88.7382 71.5397 88.7382 71.8319C88.7675 72.5333 88.8844 73.2932 89.1182 73.9946C89.9072 76.4202 92.0406 78.0276 94.9047 78.0276C97.7687 78.0276 99.7852 76.6248 100.633 74.2576C100.896 73.4393 101.1 72.5333 101.1 71.3935C101.1 70.1076 100.896 68.9971 100.516 68.0911ZM106.723 77.7938C107.921 77.7938 108.856 76.8878 108.856 75.748C108.856 74.6375 107.804 73.7608 106.723 73.7608C105.642 73.7608 104.619 74.6375 104.619 75.748C104.619 76.8878 105.496 77.7938 106.723 77.7938ZM123.804 68.0911C123.074 66.3961 121.759 65.2855 119.655 65.1102C119.508 65.081 119.45 64.9933 119.538 64.9056L124.009 60.0251C124.155 59.8789 124.214 59.6744 124.214 59.4698V57.7747C124.214 57.5117 124.038 57.3364 123.775 57.3364H112.728C112.465 57.3364 112.29 57.5117 112.29 57.7747V59.3529C112.29 59.6159 112.465 59.7913 112.728 59.7913H120.473C120.59 59.7913 120.619 59.8497 120.531 59.9666L115.621 65.1979C115.446 65.4024 115.417 65.5778 115.592 65.8116L116.527 66.9514C116.703 67.1559 116.907 67.1852 117.141 67.0683C117.492 66.8929 117.784 66.8052 118.164 66.8052C119.567 66.8052 120.56 67.4482 121.057 68.6756C121.379 69.377 121.554 70.2538 121.554 71.3351C121.554 72.1534 121.408 72.9425 121.145 73.6146C120.677 74.9005 119.655 75.5727 118.193 75.5727C116.586 75.5727 115.475 74.6375 115.095 73.2347C114.979 72.8548 114.92 72.2995 114.862 71.8319C114.862 71.5397 114.686 71.3935 114.423 71.3935H112.465C112.202 71.3935 112.027 71.5397 112.027 71.8319C112.056 72.5333 112.173 73.2932 112.407 73.9946C113.196 76.4202 115.329 78.0276 118.193 78.0276C121.057 78.0276 123.074 76.6248 123.921 74.2576C124.184 73.4393 124.389 72.5333 124.389 71.3935C124.389 70.1076 124.184 68.9971 123.804 68.0911Z" fill="#1E1E1C"/>
</g>
<defs>
<clipPath id="clip0_26_63">
<rect width="215.9" height="243" fill="white"/>
</clipPath>
</defs>
</svg>
